<?xml version="1.0" encoding="UTF-8" standalone="no" ?>
<!DOCTYPE svg PUBLIC "-//W3C//DTD SVG 1.1//EN" "http://www.w3.org/Graphics/SVG/1.1/DTD/svg11.dtd">
<svg xmlns="http://www.w3.org/2000/svg" xmlns:xlink="http://www.w3.org/1999/xlink" version="1.1" width="1080" height="1080" viewBox="0 0 1080 1080" xml:space="preserve">
<desc>Created with Fabric.js 4.2.0</desc>
<defs>
</defs>
<g transform="matrix(1 0 0 1 540 540)" id="7fe55f0b-79ae-45a9-ae53-996070ddaeeb"  >
<rect style="stroke: none; stroke-width: 1; stroke-dasharray: none; stroke-linecap: butt; stroke-dashoffset: 0; stroke-linejoin: miter; stroke-miterlimit: 4; fill: rgb(255,255,255); fill-rule: nonzero; opacity: 1; visibility: hidden;" vector-effect="non-scaling-stroke"  x="-540" y="-540" rx="0" ry="0" width="1080" height="1080" />
</g>
<g transform="matrix(Infinity NaN NaN Infinity 0 0)" id="cea93fd8-522f-4ac4-b500-137a085a9296"  >
</g>
<g transform="matrix(6.17 0 0 6.17 540 540)" id="fb3a29e4-4c53-44c1-af7c-4fef19264bfc"  >
<circle style="stroke: rgb(0,0,0); stroke-width: 0; stroke-dasharray: none; stroke-linecap: butt; stroke-dashoffset: 0; stroke-linejoin: miter; stroke-miterlimit: 4; fill: rgb(253,217,8); fill-rule: nonzero; opacity: 1;" vector-effect="non-scaling-stroke"  cx="0" cy="0" r="35" />
</g>
<g transform="matrix(0.48 0 0 0.48 540 540)" id="36e226ad-8d27-46c4-9046-ebdeb01baf97"  >
<path style="stroke: rgb(0,0,0); stroke-width: 0; stroke-dasharray: none; stroke-linecap: butt; stroke-dashoffset: 0; stroke-linejoin: miter; stroke-miterlimit: 4; fill: rgb(0,0,0); fill-rule: nonzero; opacity: 1;" vector-effect="non-scaling-stroke"  transform=" translate(-224, -256)" d="M 0 96 C 0 78.3 14.3 64 32 64 L 416 64 C 433.7 64 448 78.3 448 96 C 448 113.7 433.7 128 416 128 L 32 128 C 14.3 128 0 113.7 0 96 z M 0 256 C 0 238.3 14.3 224 32 224 L 416 224 C 433.7 224 448 238.3 448 256 C 448 273.7 433.7 288 416 288 L 32 288 C 14.3 288 0 273.7 0 256 z M 448 416 C 448 433.7 433.7 448 416 448 L 32 448 C 14.3 448 0 433.7 0 416 C 0 398.3 14.3 384 32 384 L 416 384 C 433.7 384 448 398.3 448 416 z" stroke-linecap="round" />
</g>
</svg>